<svg width="56" height="56" viewBox="0 0 56 56" fill="none" xmlns="http://www.w3.org/2000/svg">
<path fill-rule="evenodd" clip-rule="evenodd" d="M28.6395 7.54987C24.6597 7.41734 20.6389 8.50312 17.1675 10.8203C13.2687 13.4255 10.544 17.2727 9.28896 21.5735C8.94238 21.5312 8.52736 21.5499 8.03456 21.6893C6.19465 22.2113 4.81083 23.7189 4.18861 25.0468C3.38158 26.7772 3.04123 29.0657 3.40025 31.4283C3.75678 33.7834 4.75172 35.7247 5.99616 36.93C7.24434 38.1358 8.65367 38.5278 10.0537 38.2335C12.1381 37.7886 13.1716 37.4557 12.8798 35.5138L11.4667 26.1002C11.7517 21.0054 14.3893 16.2093 18.8009 13.26C24.7058 9.31574 32.4475 9.56836 38.0798 13.8922C41.9979 16.8963 44.2728 21.3974 44.5354 26.1226L43.5473 32.7076C41.3434 38.7388 35.8796 42.9164 29.5572 43.5093H25.3473C24.2609 43.5093 23.386 44.3842 23.386 45.4693V46.5035C23.386 47.5893 24.2609 48.4641 25.3473 48.4641H30.6555C31.7412 48.4641 32.6123 47.5893 32.6123 46.5035V45.9628C37.3798 44.7992 41.5412 41.8692 44.251 37.783L45.9515 38.2341C47.3354 38.5932 48.7615 38.1358 50.0091 36.9306C51.2535 35.7247 52.2478 33.784 52.605 31.4289C52.9652 29.0663 52.6149 26.7815 51.8172 25.0474C51.0164 23.3133 49.8236 22.2119 48.4467 21.8168C47.8699 21.6507 47.2439 21.5897 46.7069 21.5735C45.572 17.6846 43.2355 14.1479 39.8681 11.5657C36.5572 9.02516 32.6192 7.68054 28.6395 7.54987Z" fill="url(#paint0_linear_342_1614)"/>
<path fill-rule="evenodd" clip-rule="evenodd" d="M34.8543 24.4861C36.2574 24.4861 37.3948 25.6235 37.3979 27.0303C37.3948 28.4334 36.2574 29.574 34.8543 29.574C33.4474 29.574 32.3069 28.4334 32.3069 27.0303C32.3069 25.6241 33.4481 24.4861 34.8543 24.4861ZM28.0036 24.4861C29.4098 24.4861 30.5473 25.6235 30.5473 27.0303C30.5473 28.4334 29.4098 29.574 28.0036 29.574C26.5961 29.574 25.4587 28.4334 25.4587 27.0303C25.4587 25.6241 26.5961 24.4861 28.0036 24.4861ZM21.1554 24.4861C22.5585 24.4861 23.6991 25.6235 23.6991 27.0303C23.6991 28.4334 22.5585 29.574 21.1554 29.574C19.7492 29.574 18.6112 28.4334 18.6112 27.0303C18.6112 25.6241 19.7492 24.4861 21.1554 24.4861ZM28.0036 13.5586C20.5432 13.5586 14.5312 19.3726 14.5312 27.0303C14.5312 30.7083 15.9219 33.9588 18.1874 36.3437L17.3835 39.9477C17.1185 41.1336 17.941 41.9313 19.0069 41.3377L22.5262 39.3746C24.1987 40.1007 26.0486 40.5021 28.0036 40.5021C35.4665 40.5021 41.4747 34.6917 41.4747 27.0303C41.4747 19.3726 35.4665 13.5586 28.0036 13.5586Z" fill="url(#paint1_linear_342_1614)"/>
<defs>
<linearGradient id="paint0_linear_342_1614" x1="13.7873" y1="28.0016" x2="42.7435" y2="28.0016" gradientUnits="userSpaceOnUse">
<stop stop-color="#5F8FF1"/>
<stop offset="1" stop-color="#4285FC"/>
</linearGradient>
<linearGradient id="paint1_linear_342_1614" x1="20.2639" y1="27.5487" x2="36.0287" y2="27.5487" gradientUnits="userSpaceOnUse">
<stop stop-color="#5F8FF1"/>
<stop offset="1" stop-color="#4285FC"/>
</linearGradient>
</defs>
</svg>
